<svg width="23" height="16" viewBox="0 0 23 16" fill="none" xmlns="http://www.w3.org/2000/svg">
<path fill-rule="evenodd" clip-rule="evenodd" d="M13.8579 9.59455C14.0428 9.64725 14.2409 9.67344 14.452 9.67344C15.0946 9.67344 15.6401 9.44474 16.089 8.98721C16.2037 8.8726 16.3048 8.74939 16.3928 8.61759L18.3338 9.87156C18.1665 10.1356 17.9639 10.3864 17.726 10.6242C16.8196 11.5307 15.7281 11.9841 14.452 11.9841C13.1756 11.9841 12.0862 11.5331 11.1842 10.6307C10.2818 9.72876 9.83081 8.63928 9.83081 7.3633C9.83081 6.08681 10.2818 4.99742 11.1842 4.09537C12.0862 3.193 13.1756 2.74197 14.452 2.74197C15.7281 2.74197 16.8196 3.1909 17.726 4.08887C18.0081 4.37898 18.2499 4.6872 18.4525 5.01293L13.8579 9.59455ZM12.6501 6.60698C12.7005 6.55659 12.7819 6.55659 12.8322 6.60698C12.8822 6.65727 12.8822 6.73878 12.8322 6.78907C12.7819 6.83946 12.7005 6.83946 12.6501 6.78907C12.5998 6.73878 12.5998 6.65727 12.6501 6.60698ZM13.6876 5.58874C13.7379 5.53845 13.8193 5.53845 13.8693 5.58874C13.9196 5.63913 13.9196 5.72054 13.8693 5.77082C13.8193 5.82122 13.7379 5.82122 13.6876 5.77082C13.6373 5.72054 13.6373 5.63913 13.6876 5.58874ZM15.0594 5.11854C14.8659 5.07474 14.6632 5.05264 14.452 5.05264C14.1529 5.05264 13.8738 5.10261 13.6147 5.20246L13.4453 4.57018C13.4301 4.51245 13.3704 4.47809 13.3127 4.49317C13.2551 4.50878 13.2206 4.5685 13.2362 4.62623L13.4146 5.29203C13.2023 5.40005 13.0041 5.54452 12.8212 5.72588C12.6284 5.91656 12.477 6.12526 12.3661 6.35082L11.722 6.17848C11.6647 6.16297 11.605 6.19734 11.5893 6.25506C11.5743 6.31269 11.6086 6.37209 11.6659 6.3876L12.2802 6.55219C12.1877 6.80258 12.1415 7.07309 12.1415 7.3633C12.1415 7.57441 12.1681 7.77253 12.2205 7.95713L15.0594 5.11854Z" fill="white"/>
<path fill-rule="evenodd" clip-rule="evenodd" d="M6.71269 11.3259C6.11437 11.616 5.45433 11.7614 4.73236 11.7614C3.45587 11.7614 2.36689 11.3103 1.46486 10.4079C0.562508 9.50598 0.111145 8.4165 0.111145 7.14052C0.111145 5.86403 0.562508 4.77465 1.46486 3.87259C2.36689 2.97022 3.45587 2.51919 4.73236 2.51919C5.45433 2.51919 6.11437 2.66451 6.71269 2.95472V2.84911H9.02337V11.4311H6.71269V11.3259ZM6.71269 8.3286V5.93894C6.6161 5.78053 6.50159 5.63532 6.36936 5.5031C5.91186 5.05417 5.36588 4.82986 4.73236 4.82986C4.08984 4.82986 3.5439 5.05417 3.09536 5.5031C2.64645 5.95203 2.42169 6.49756 2.42169 7.14052C2.42169 7.77406 2.64645 8.31749 3.09536 8.77093C3.5439 9.22395 4.08984 9.45067 4.73236 9.45067C5.36588 9.45067 5.91186 9.22196 6.36936 8.76401C6.50159 8.63222 6.6161 8.4869 6.71269 8.3286V8.3286Z" fill="white"/>
<path fill-rule="evenodd" clip-rule="evenodd" d="M19.9296 1.87231H22.2403V0.222213H19.9296V1.87231Z" fill="white"/>
<path fill-rule="evenodd" clip-rule="evenodd" d="M19.93 11.2726V2.83586H22.2401V11.2726C22.2401 12.5048 21.8047 13.5545 20.9334 14.4218C20.0617 15.2885 19.0144 15.7219 17.7908 15.7219V13.4117C18.3804 13.4117 18.8843 13.2026 19.3025 12.7844C19.7207 12.3665 19.93 11.8623 19.93 11.2726V11.2726Z" fill="white"/>
</svg>
